<svg xmlns="http://www.w3.org/2000/svg" width="1600" height="1000" viewBox="0 0 1600 1000" role="img" aria-labelledby="title">
  <title id="title">VAYRA Mineral Monochrome mark review</title>
  <rect width="800" height="1000" fill="#0A0B0D"/>
  <rect x="800" width="800" height="1000" fill="#F4F2ED"/>
  <rect x="799" width="2" height="1000" fill="#A8AAAD"/>
  <g font-family="Arial, sans-serif" font-weight="700" letter-spacing="8" font-size="28">
    <text x="72" y="78" fill="#F4F2ED">VAYRA · DARK FIELD</text>
    <text x="872" y="78" fill="#0A0B0D">VAYRA · LIGHT FIELD</text>
  </g>
  <g transform="translate(144 130)">
    <path fill="#A8AAAD" d="M342 74c71 17 108 80 94 151-14 73-85 142-211 207 61-49 105-94 129-137 42-74 37-161-12-221Z"/>
    <path fill="#A8AAAD" d="M170 74C99 91 62 154 76 225c14 73 85 142 211 207-61-49-105-94-129-137-42-74-37-161 12-221Z"/>
  </g>
  <g transform="translate(944 130)">
    <path fill="#4B4D50" d="M342 74c71 17 108 80 94 151-14 73-85 142-211 207 61-49 105-94 129-137 42-74 37-161-12-221Z"/>
    <path fill="#4B4D50" d="M170 74C99 91 62 154 76 225c14 73 85 142 211 207-61-49-105-94-129-137-42-74-37-161 12-221Z"/>
  </g>
  <g font-family="Arial, sans-serif" font-weight="700" font-size="24" letter-spacing="3">
    <text x="346" y="690" fill="#F4F2ED">100%</text>
    <text x="1146" y="690" fill="#0A0B0D">100%</text>
  </g>
  <g transform="translate(190 748) scale(.0625)">
    <path fill="#F4F2ED" d="M342 74c71 17 108 80 94 151-14 73-85 142-211 207 61-49 105-94 129-137 42-74 37-161-12-221Z"/>
    <path fill="#F4F2ED" d="M170 74C99 91 62 154 76 225c14 73 85 142 211 207-61-49-105-94-129-137-42-74-37-161 12-221Z"/>
  </g>
  <g transform="translate(434 756) scale(.03125)">
    <path fill="#F4F2ED" d="M342 74c71 17 108 80 94 151-14 73-85 142-211 207 61-49 105-94 129-137 42-74 37-161-12-221Z"/>
    <path fill="#F4F2ED" d="M170 74C99 91 62 154 76 225c14 73 85 142 211 207-61-49-105-94-129-137-42-74-37-161 12-221Z"/>
  </g>
  <g transform="translate(990 748) scale(.0625)">
    <path fill="#0A0B0D" d="M342 74c71 17 108 80 94 151-14 73-85 142-211 207 61-49 105-94 129-137 42-74 37-161-12-221Z"/>
    <path fill="#0A0B0D" d="M170 74C99 91 62 154 76 225c14 73 85 142 211 207-61-49-105-94-129-137-42-74-37-161 12-221Z"/>
  </g>
  <g transform="translate(1234 756) scale(.03125)">
    <path fill="#0A0B0D" d="M342 74c71 17 108 80 94 151-14 73-85 142-211 207 61-49 105-94 129-137-42-74-37-161 12-221Z"/>
    <path fill="#0A0B0D" d="M170 74C99 91 62 154 76 225c14 73 85 142 211 207-61-49-105-94-129-137-42-74-37-161 12-221Z"/>
  </g>
  <g font-family="Arial, sans-serif" font-weight="700" font-size="20" letter-spacing="2">
    <text x="176" y="850" fill="#F4F2ED">32 PX</text>
    <text x="414" y="850" fill="#F4F2ED">16 PX</text>
    <text x="976" y="850" fill="#0A0B0D">32 PX</text>
    <text x="1214" y="850" fill="#0A0B0D">16 PX</text>
  </g>
  <g font-family="Arial, sans-serif" font-size="18" letter-spacing="2">
    <text x="72" y="945" fill="#A8AAAD">#0A0B0D · #F4F2ED · #A8AAAD · #4B4D50</text>
    <text x="872" y="945" fill="#4B4D50">MINERAL MONOCHROME</text>
  </g>
</svg>
