<svg xmlns="http://www.w3.org/2000/svg" viewBox="0 0 820 260" role="img" aria-labelledby="title">
  <title id="title">VAYRA wordmark for light backgrounds</title>
  <g transform="translate(330 8) scale(.34)">
    <path fill="#0B0C10" d="M170 74C99 91 62 154 76 225c14 73 85 142 211 207-61-49-105-94-129-137-42-74-37-161 12-221Z"/>
    <path fill="#0B0C10" d="M342 74c71 17 108 80 94 151-14 73-85 142-211 207 61-49 105-94 129-137 42-74 37-161-12-221Z"/>
  </g>
  <g fill="#0B0C10" transform="translate(126 184)">
    <path d="M0 0h12l20 47L52 0h12L38 62H26Z"/>
    <path fill-rule="evenodd" d="M103 62h-12l25-62h13l25 62h-12l-6-15h-27Zm10-25h19l-9-24Z"/>
    <path d="M180 0h13l17 25 17-25h13l-24 36v26h-12V36Z"/>
    <path fill-rule="evenodd" d="M278 0h28c17 0 27 8 27 22 0 10-5 17-15 20l18 20h-15l-16-18h-15v18h-12Zm12 10v24h16c10 0 15-4 15-12s-5-12-15-12Z"/>
    <path fill-rule="evenodd" d="M378 62h-12l25-62h13l25 62h-12l-6-15h-27Zm10-25h19l-9-24Z"/>
  </g>
</svg>
